<svg xmlns="http://www.w3.org/2000/svg" width="1024" height="1024" viewBox="0 0 1024 1024"><title>geolocation-icon-blue</title><circle cx="511.96" cy="511.96" r="153.6" fill="#005aaa"/><path d="M1024,460.79H918.06C894.8,275.86,748.14,129.2,563.21,105.94V0H460.79V105.94C275.86,129.2,129.2,275.86,105.94,460.79H0V563.21H105.94C129.2,748.14,276,894.89,460.79,918.06V1024H563.21V918.06C748.14,894.8,894.8,748.14,918.06,563.21H1024ZM512,819.15c-169.4,0-307.2-137.8-307.2-307.19s137.8-307.2,307.2-307.2S819.15,342.56,819.15,512,681.35,819.15,512,819.15Z" fill="#005aaa"/></svg>